<svg width="894" height="489" viewBox="0 0 894 489" fill="none" xmlns="http://www.w3.org/2000/svg">
<path d="M0 282.064H310L327.5 204.063C328.5 199.563 335.5 199.563 336.5 204.063L358.5 308.563C362.5 316.563 365.5 312.063 366.5 308.563L428 20.0634C431.5 10.0634 435.5 16.0634 436.5 20.0634L514 391.563C518 400.363 522.5 395.563 523.5 391.563L561 214.063C563.5 206.563 569.5 208.563 570.5 214.063L584.5 281.063H813C810.5 122.063 665 102.063 606 132.563C556.8 52.9634 482.5 36.7301 451.5 38.5634L445.5 9.56345C442.5 -3.4366 420 -2.93659 418.5 9.56345L413 38.5634C334.6 49.7635 288 105.23 274.5 131.564C134.9 85.1636 64.5 208.063 69.5 268.564L0 282.064Z" fill="#009FE3"/>
<path d="M73 301.563H321.5C323.5 301.5 325.097 297.978 327.5 287.563C329 281.063 334 281.745 335 287.563C340.5 319.563 352.942 385.92 357 396.063C361 406.063 366 400.563 367 396.063L425.5 101.563C429 90.5634 437.5 95.0634 439 101.563L514.5 475.563C517 483.5 524 481 525 475.563L565 282.063C567 296.863 574.167 300.897 577.5 301.063L893.5 301.563L802.5 322.563C781 380.063 719 416.563 685 416.563H549L535.5 475.563C531 493.5 508 492.063 505 475.563L491.5 416.563H202.5C116.9 406.963 80.5 335.897 73 301.563Z" fill="#004C9F"/>
</svg>
